<?xml version="1.0" encoding="utf-8"?>
<!-- Generator: Adobe Illustrator 19.1.0, SVG Export Plug-In . SVG Version: 6.00 Build 0)  -->
<svg version="1.1" id="Layer_1" xmlns="http://www.w3.org/2000/svg" xmlns:xlink="http://www.w3.org/1999/xlink" x="0px" y="0px"
	 viewBox="0 0 230 46" style="enable-background:new 0 0 230 46;" xml:space="preserve">
<style type="text/css">
	.st0{fill:#FFFFFF;}
	.st1{opacity:0.75;}
	.st2{fill:#BCD436;}
</style>
<g>
	<g>
		<g>
			<path class="st0" d="M55,0.8h4.9l4.8,21.6h0.1l5.9-21.6H74l5.9,21.6H80l4.8-21.6h4.9l-7.6,30.5h-3.9L72.4,9.3h-0.1l-5.8,21.9
				h-3.9L55,0.8z"/>
			<path class="st0" d="M97.9,5.1h-4.4V0.8 M93.5,9.5h4.4v21.7h-4.4V9.5z"/>
			<path class="st0" d="M115.3,28.9c-1.4,1.5-3.4,2.5-5.6,2.5c-2.7,0-4.6-1.2-5.8-2.8c-1.2-1.5-1.5-3-1.5-8.3c0-5.3,0.3-6.7,1.5-8.3
				c1.2-1.6,3.2-2.8,5.8-2.8c2.2,0,4,1,5.6,2.6V0.8h4.4v30.5h-4.4V28.9z M106.7,20.3c0,3.4,0.2,6.8,4.3,6.8c4.1,0,4.3-3.6,4.3-6.8
				c0-3.1-0.2-6.7-4.3-6.7C107,13.6,106.7,17,106.7,20.3z"/>
			<path class="st0" d="M127.5,22c0,3.6,2.2,5.3,5.2,5.3c1.7,0,3.5-0.8,4.7-2.1l3.2,2.7c-2.1,2.5-4.9,3.5-7.8,3.5
				c-4.4,0-9.6-2.1-9.6-11c0-8.4,4.7-11.2,8.9-11.2c4.8,0,8.9,3.6,8.9,9.2V22H127.5z M136.6,18.4c-0.1-3.3-2-5-4.6-5
				c-2.6,0-4.5,1.8-4.6,5H136.6z"/>
			<path class="st0" d="M148.4,6c1.5-2.7,4.7-5.5,9.5-5.5c4.8,0,8.1,2.8,9.5,5.5c1,1.8,1.3,2.7,1.3,10c0,7.3-0.3,8.2-1.3,10
				c-1.5,2.7-4.7,5.5-9.5,5.5c-4.8,0-8.1-2.8-9.5-5.5c-1-1.8-1.3-2.7-1.3-10C147,8.7,147.4,7.8,148.4,6z M153.2,24.6
				c0.9,1.2,2.5,2.2,4.7,2.2c2.2,0,3.8-1,4.7-2.2c1.2-1.5,1.5-2.4,1.5-8.6c0-6.2-0.3-7.1-1.5-8.6c-0.9-1.2-2.5-2.2-4.7-2.2
				c-2.2,0-3.8,1-4.7,2.2c-1.2,1.5-1.5,2.4-1.5,8.6C151.7,22.2,152,23.1,153.2,24.6z"/>
			<path class="st0" d="M171.6,9.5h4.4v2.3c1.4-1.5,3.4-2.5,5.6-2.5c2.7,0,4.6,1.2,5.8,2.8c1.2,1.5,1.5,3,1.5,8.3
				c0,5.3-0.3,6.7-1.5,8.3c-1.2,1.6-3.2,2.8-5.8,2.8c-2.2,0-4-1-5.6-2.6V40h-4.4V9.5z M184.6,20.4c0-3.4-0.2-6.8-4.3-6.8
				c-4.1,0-4.3,3.6-4.3,6.8c0,3.1,0.2,6.7,4.3,6.7C184.4,27.1,184.6,23.7,184.6,20.4z"/>
			<path class="st0" d="M195.9,22c0,3.6,2.2,5.3,5.2,5.3c1.7,0,3.5-0.8,4.7-2.1L209,28c-2.1,2.5-4.9,3.5-7.8,3.5
				c-4.4,0-9.6-2.1-9.6-11c0-8.4,4.7-11.2,8.9-11.2c4.8,0,8.9,3.6,8.9,9.2V22H195.9z M205,18.4c-0.1-3.3-2-5-4.6-5
				c-2.6,0-4.5,1.8-4.6,5H205z"/>
			<path class="st0" d="M212.7,9.5h4.4v2.3h0.1c1.4-1.7,3.3-2.6,5.6-2.6c3.4,0,7.2,2.6,7.2,7.5v14.4h-4.4V18.3c0-3-1.8-4.7-4.3-4.7
				c-2.5,0-4.3,1.7-4.3,4.7v12.9h-4.4V9.5z"/>
		</g>
	</g>
	<g class="st1">
		<path class="st0" d="M58.9,37.8h-2.4v-1.2h6.2v1.2h-2.4v7.6h-1.3V37.8z"/>
		<path class="st0" d="M66.1,36.6h5.6v1.3h-4.3v2.5h3.7v1.2h-3.7v2.6h4.3v1.3h-5.6V36.6z"/>
		<path class="st0" d="M81.4,43c-0.3,1.6-1.6,2.5-3.1,2.5c-1.4,0-2.3-0.8-2.8-1.6c-0.3-0.5-0.4-0.8-0.4-2.9c0-2.1,0.1-2.4,0.4-2.9
			c0.4-0.8,1.4-1.6,2.8-1.6c1.7,0,2.8,1.2,3.1,2.6H80c-0.2-0.7-0.8-1.3-1.7-1.3c-0.6,0-1.1,0.3-1.4,0.6c-0.3,0.4-0.4,0.7-0.4,2.5
			c0,1.8,0.1,2.1,0.4,2.5c0.3,0.3,0.7,0.6,1.4,0.6c0.7,0,1.3-0.4,1.7-1.2H81.4z"/>
		<path class="st0" d="M89.7,41.6h-3.5v3.8h-1.3v-8.8h1.3v3.8h3.5v-3.8H91v8.8h-1.3V41.6z"/>
		<path class="st0" d="M95.3,36.6h1.3l4,6.3h0v-6.3h1.3v8.8h-1.3l-4-6.3h0v6.3h-1.3V36.6z"/>
		<path class="st0" d="M106.4,38.1c0.4-0.8,1.4-1.6,2.8-1.6c1.4,0,2.3,0.8,2.8,1.6c0.3,0.5,0.4,0.8,0.4,2.9c0,2.1-0.1,2.4-0.4,2.9
			c-0.4,0.8-1.4,1.6-2.8,1.6c-1.4,0-2.3-0.8-2.8-1.6c-0.3-0.5-0.4-0.8-0.4-2.9C106,38.9,106.1,38.6,106.4,38.1z M107.8,43.5
			c0.3,0.3,0.7,0.6,1.4,0.6c0.6,0,1.1-0.3,1.4-0.6c0.3-0.4,0.4-0.7,0.4-2.5c0-1.8-0.1-2.1-0.4-2.5c-0.3-0.3-0.7-0.6-1.4-0.6
			c-0.6,0-1.1,0.3-1.4,0.6c-0.3,0.4-0.4,0.7-0.4,2.5C107.3,42.8,107.4,43.1,107.8,43.5z"/>
		<path class="st0" d="M116.3,36.6h1.3v7.6h4.3v1.3h-5.6V36.6z"/>
		<path class="st0" d="M125.7,38.1c0.4-0.8,1.4-1.6,2.8-1.6c1.4,0,2.3,0.8,2.8,1.6c0.3,0.5,0.4,0.8,0.4,2.9c0,2.1-0.1,2.4-0.4,2.9
			c-0.4,0.8-1.4,1.6-2.8,1.6c-1.4,0-2.3-0.8-2.8-1.6c-0.3-0.5-0.4-0.8-0.4-2.9C125.4,38.9,125.5,38.6,125.7,38.1z M127.1,43.5
			c0.3,0.3,0.7,0.6,1.4,0.6c0.6,0,1.1-0.3,1.4-0.6c0.3-0.4,0.4-0.7,0.4-2.5c0-1.8-0.1-2.1-0.4-2.5c-0.3-0.3-0.7-0.6-1.4-0.6
			c-0.6,0-1.1,0.3-1.4,0.6c-0.3,0.4-0.4,0.7-0.4,2.5C126.7,42.8,126.8,43.1,127.1,43.5z"/>
		<path class="st0" d="M138.5,40.6h3.1v1.8c0,1.7-1.4,3.1-3.1,3.1c-1.4,0-2.3-0.8-2.8-1.6c-0.3-0.5-0.4-0.8-0.4-2.9
			c0-2.1,0.1-2.4,0.4-2.9c0.4-0.8,1.4-1.6,2.8-1.6c1.7,0,2.8,1.2,3.1,2.6h-1.4c-0.2-0.7-0.8-1.3-1.7-1.3c-0.6,0-1.1,0.3-1.4,0.6
			c-0.3,0.4-0.4,0.7-0.4,2.5c0,1.8,0.1,2.1,0.4,2.5c0.3,0.3,0.7,0.6,1.4,0.6c1,0,1.8-0.8,1.8-1.9v-0.5h-1.8V40.6z"/>
		<path class="st0" d="M145.7,36.6h1.3v8.8h-1.3V36.6z"/>
		<path class="st0" d="M151.4,36.6h5.6v1.3h-4.3v2.5h3.7v1.2h-3.7v2.6h4.3v1.3h-5.6V36.6z"/>
		<path class="st0" d="M160.8,43.3c0.7,0.5,1.6,0.9,2.5,0.9c1.1,0,1.7-0.5,1.7-1.2c0-0.6-0.4-1.1-1.1-1.2c-0.4,0-0.7-0.1-1.2-0.2
			c-1.5-0.2-2.3-1.2-2.3-2.5c0-1.5,1.1-2.6,2.9-2.6c1.1,0,2.1,0.4,2.9,0.9l-0.7,1.1c-0.6-0.4-1.4-0.7-2.2-0.7
			c-0.8,0-1.5,0.4-1.5,1.3c0,0.5,0.4,1,1.3,1.1c0.2,0,0.6,0.1,1,0.1c1.6,0.2,2.4,1.3,2.4,2.5c0,1.6-1.2,2.6-3.1,2.6
			c-1.3,0-2.4-0.4-3.4-1.2L160.8,43.3z"/>
	</g>
	<path class="st2" d="M40.7,0.7H4c-2.2,0-4,1.8-4,4v36.7c0,2.2,1.8,4,4,4h36.7c2.2,0,4-1.8,4-4V4.6C44.6,2.5,42.8,0.7,40.7,0.7z
		 M11.1,34.4H5.7v-23h5.5L11.1,34.4h8.6l0,4.7L11.1,34.4z M39.2,34.4h-5.5l0,4.7l-8.6-4.7h-5.5v-23h5.5v23h8.6v-23h5.5V34.4z"/>
</g>
</svg>
